<?xml version="1.0" encoding="UTF-8" standalone="no"?>
<!-- Uploaded to: SVG Repo, www.svgrepo.com, Generator: SVG Repo Mixer Tools -->

<svg
   fill="#000000"
   height="800px"
   width="800px"
   version="1.1"
   id="Layer_1"
   viewBox="0 0 470.4 470.4"
   xml:space="preserve"
   sodipodi:docname="cocktail-drink.svg"
   inkscape:version="1.3.2 (091e20e, 2023-11-25, custom)"
   xmlns:inkscape="http://www.inkscape.org/namespaces/inkscape"
   xmlns:sodipodi="http://sodipodi.sourceforge.net/DTD/sodipodi-0.dtd"
   xmlns:xlink="http://www.w3.org/1999/xlink"
   xmlns="http://www.w3.org/2000/svg"
   xmlns:svg="http://www.w3.org/2000/svg"><defs
   id="defs4"><linearGradient
   id="linearGradient4"
   inkscape:collect="always"><stop
     style="stop-color:#00ff00;stop-opacity:1;"
     offset="0"
     id="stop4" /><stop
     style="stop-color:#00ff00;stop-opacity:0;"
     offset="1"
     id="stop5" /></linearGradient>
		
	
			
			
		<linearGradient
   inkscape:collect="always"
   xlink:href="#linearGradient4"
   id="linearGradient5"
   x1="234.20424"
   y1="899.63251"
   x2="233.40764"
   y2="758.63196"
   gradientUnits="userSpaceOnUse" /></defs><sodipodi:namedview
   id="namedview4"
   pagecolor="#ffffff"
   bordercolor="#000000"
   borderopacity="0.25"
   inkscape:showpageshadow="2"
   inkscape:pageopacity="0.0"
   inkscape:pagecheckerboard="0"
   inkscape:deskcolor="#d1d1d1"
   showgrid="false"
   inkscape:zoom="0.738125"
   inkscape:cx="399.6613"
   inkscape:cy="400.3387"
   inkscape:window-width="1173"
   inkscape:window-height="1107"
   inkscape:window-x="678"
   inkscape:window-y="115"
   inkscape:window-maximized="0"
   inkscape:current-layer="g4" />
<g
   transform="translate(0 -540.36)"
   id="g4">
	<path
   style="fill:url(#linearGradient5);stroke-width:0.588"
   d="m 142.59373,753.8523 -11.94919,54.9663 19.11871,50.98323 42.22049,33.45775 66.9155,3.18645 39.83065,-20.71194 27.08484,-39.03404 6.37291,-40.62726 -7.96613,-32.66114 -3.18645,-9.55936 z"
   id="path4"
   inkscape:label="drink"
   sodipodi:nodetypes="ccccccccccc" /><path
   d="m 364.456,564.96 v 0 c -0.1,-0.1 -0.2,-0.3 -0.3,-0.4 -9.6,-14.9 -26.7,-24.2 -44.6,-24.2 -19.6,0 -36.4,9.2 -44.9,24.6 -2,3.6 -0.7,8.1 2.8,10.1 l 31.9,18.3 -24.7,36.1 h -88.2 l -25,-64.7 h -72 v 15 h 61.6 l 19.2,49.7 h -42.2 c -2.4,0 -4.6,1.1 -6.1,3.1 -1.5,2 -1.8,4.4 -1.1,6.7 7,22 10.8,46.5 10.8,70.8 -0.7,18.5 -5,36.8 -9.1,54.4 -2.8,11.8 -5.4,22.9 -6.9,33.8 0,0.1 0,0.1 0,0.2 -2.8,24.7 5.3,49.2 22.9,69 18.9,21.2 46.6,34.6 75.4,36.8 v 91.5 h -33.9 c -4.1,0 -7.5,3.4 -7.5,7.5 0,4.1 3.4,7.5 7.5,7.5 h 82.8 c 4.1,0 7.5,-3.4 7.5,-7.5 0,-4.1 -3.4,-7.5 -7.5,-7.5 h -33.9 v -91.5 c 28.7,-1.8 56.5,-15.1 75.3,-36.2 17.6,-19.8 25.8,-44.4 22.9,-69.5 -1.2,-15.6 -5,-30.6 -8.6,-45.1 -3.8,-15.5 -7.5,-30.1 -7.5,-43.3 0,-24.4 3.7,-48.9 10.8,-71 0.7,-2.3 0.3,-4.8 -1.1,-6.7 -1.4,-1.9 -3.7,-3.1 -6.1,-3.1 h -22 l 19.6,-28.6 31.7,18.2 c 1.1,0.7 2.4,1 3.7,1 0.7,0 1.4,-0.1 2,-0.3 1.9,-0.5 3.6,-1.8 4.5,-3.6 9,-15.7 9,-35.3 0.3,-51.1 z m -178.3,79.5 41.5,107.1 h -76.7 c 2.9,-13.3 5.2,-26.9 5.8,-41 0,-0.1 0,-0.2 0,-0.3 0,-22.4 -3,-44.9 -8.6,-65.8 z m 136.1,155.4 c 0,0.2 0,0.3 0,0.4 2.4,20.8 -4.4,41.3 -19.2,57.9 -17.5,19.7 -44.1,31.4 -71,31.4 -27.4,0 -54.4,-12 -72.3,-32.1 -14.7,-16.5 -21.5,-36.8 -19.2,-57.2 1.4,-10.2 3.9,-20.9 6.6,-32.4 0.1,-0.5 0.2,-0.9 0.3,-1.4 h 85.9 v 0.1 l 0.2,-0.1 h 82.8 c 2.6,11 5,22.2 5.9,33.4 z m -7.5,-155.4 c -5.6,20.9 -8.6,43.4 -8.6,65.8 0,13.3 3,27 6.6,41.3 h -69.1 l -41.5,-107.1 z m 39.5,-42.6 -62.1,-35.6 c 6.5,-6.9 16.3,-10.9 27.4,-10.9 12.8,0 25,6.5 31.9,17.1 4.8,8.9 5.8,19.8 2.8,29.4 z"
   id="path1"
   transform="translate(0)"
   inkscape:label="glass" /><path
   d="m 254.056,872.86 c 0.9,0 1.8,-0.2 2.7,-0.3 20.4,-8.1 36.8,-24.3 45,-44.5 1.6,-3.9 -0.3,-8.2 -4.1,-9.8 -3.9,-1.6 -8.2,0.3 -9.8,4.1 -6.6,16.4 -20,29.5 -36.6,36.1 -3.8,1.5 -5.7,5.8 -4.2,9.7 1.2,2.9 4,4.7 7,4.7 z"
   id="path2"
   inkscape:label="reflection" />
</g>
</svg>
