<?xml version="1.0" encoding="iso-8859-1"?>
<!-- Uploaded to: SVG Repo, www.svgrepo.com, Generator: SVG Repo Mixer Tools -->
<svg fill="#000000" height="800px" width="800px" version="1.1" id="Layer_1" xmlns="http://www.w3.org/2000/svg" xmlns:xlink="http://www.w3.org/1999/xlink" 
	 viewBox="0 0 470.4 470.4" xml:space="preserve">
<g transform="translate(0 -540.36)">
	<g>
		<g>
			<path d="M364.456,564.96L364.456,564.96c-0.1-0.1-0.2-0.3-0.3-0.4c-9.6-14.9-26.7-24.2-44.6-24.2c-19.6,0-36.4,9.2-44.9,24.6
				c-2,3.6-0.7,8.1,2.8,10.1l31.9,18.3l-24.7,36.1h-88.2l-25-64.7h-72v15h61.6l19.2,49.7h-42.2c-2.4,0-4.6,1.1-6.1,3.1
				s-1.8,4.4-1.1,6.7c7,22,10.8,46.5,10.8,70.8c-0.7,18.5-5,36.8-9.1,54.4c-2.8,11.8-5.4,22.9-6.9,33.8c0,0.1,0,0.1,0,0.2
				c-2.8,24.7,5.3,49.2,22.9,69c18.9,21.2,46.6,34.6,75.4,36.8v91.5h-33.9c-4.1,0-7.5,3.4-7.5,7.5c0,4.1,3.4,7.5,7.5,7.5h82.8
				c4.1,0,7.5-3.4,7.5-7.5s-3.4-7.5-7.5-7.5h-33.9v-91.5c28.7-1.8,56.5-15.1,75.3-36.2c17.6-19.8,25.8-44.4,22.9-69.5
				c-1.2-15.6-5-30.6-8.6-45.1c-3.8-15.5-7.5-30.1-7.5-43.3c0-24.4,3.7-48.9,10.8-71c0.7-2.3,0.3-4.8-1.1-6.7
				c-1.4-1.9-3.7-3.1-6.1-3.1h-22l19.6-28.6l31.7,18.2c1.1,0.7,2.4,1,3.7,1c0.7,0,1.4-0.1,2-0.3c1.9-0.5,3.6-1.8,4.5-3.6
				C373.156,600.36,373.156,580.76,364.456,564.96z M186.156,644.46l41.5,107.1h-76.7c2.9-13.3,5.2-26.9,5.8-41c0-0.1,0-0.2,0-0.3
				c0-22.4-3-44.9-8.6-65.8H186.156z M322.256,799.86c0,0.2,0,0.3,0,0.4c2.4,20.8-4.4,41.3-19.2,57.9c-17.5,19.7-44.1,31.4-71,31.4
				c-27.4,0-54.4-12-72.3-32.1c-14.7-16.5-21.5-36.8-19.2-57.2c1.4-10.2,3.9-20.9,6.6-32.4c0.1-0.5,0.2-0.9,0.3-1.4h85.9v0.1
				l0.2-0.1h82.8C318.956,777.46,321.356,788.66,322.256,799.86z M314.756,644.46c-5.6,20.9-8.6,43.4-8.6,65.8c0,13.3,3,27,6.6,41.3
				h-69.1l-41.5-107.1H314.756z M354.256,601.86l-62.1-35.6c6.5-6.9,16.3-10.9,27.4-10.9c12.8,0,25,6.5,31.9,17.1
				C356.256,581.36,357.256,592.26,354.256,601.86z"/>
			<path d="M254.056,872.86c0.9,0,1.8-0.2,2.7-0.3c20.4-8.1,36.8-24.3,45-44.5c1.6-3.9-0.3-8.2-4.1-9.8c-3.9-1.6-8.2,0.3-9.8,4.1
				c-6.6,16.4-20,29.5-36.6,36.1c-3.8,1.5-5.7,5.8-4.2,9.7C248.256,871.06,251.056,872.86,254.056,872.86z"/>
		</g>
	</g>
</g>
</svg>